<svg xmlns="http://www.w3.org/2000/svg" width="24" height="24" viewBox="0 0 24 24">
  <g clip-path="url(#a)">
    <path d="M12 0c6.612 0 12 5.376 12 12s-5.388 12-12 12C5.376 24 0 18.624 0 12S5.376 0 12 0Zm1.72 13.64c-5.638 1.97-7.67 5.883-7.846 6.252A9.948 9.948 0 0 0 12.006 22a9.799 9.799 0 0 0 3.91-.8 41.468 41.468 0 0 0-2.132-7.586c-.026.012-.038.012-.064.026Zm8.14-.052c-.344-.115-3.086-.926-6.221-.432 1.306 3.595 1.84 6.516 1.943 7.128a9.912 9.912 0 0 0 4.277-6.696Zm-9.587-3.315C7.283 11.772 2.432 11.709 2 11.694v.308c0 2.468.914 4.849 2.564 6.683.23-.383 2.973-4.931 8.126-6.596l.396-.114a30.563 30.563 0 0 0-.813-1.702Zm7.466-4.6c-.222.288-1.9 2.442-5.575 3.937.228.472.457.967.66 1.45.076.178.141.356.217.52 3.326-.419 6.628.255 6.959.318a9.963 9.963 0 0 0-2.26-6.225ZM7.752 2.94a10.06 10.06 0 0 0-5.537 7.001c.445 0 4.572.025 9.245-1.22a62.975 62.975 0 0 0-3.708-5.78ZM12.006 2a10.21 10.21 0 0 0-2.349.267l.006.008c.3.408 2.1 2.86 3.728 5.849 3.554-1.334 5.066-3.354 5.245-3.608A9.975 9.975 0 0 0 12.006 2Z"/>
  </g>
  <defs>
    <clipPath id="a">
      <path d="M0 0h24v24H0z"/>
    </clipPath>
  </defs>
</svg>
