<svg xmlns="http://www.w3.org/2000/svg" width="24" height="24" viewBox="0 0 24 24">
  <g clip-path="url(#a)">
    <path d="M11.998 0c3.26 0 3.667.015 4.947.072 1.277.059 2.15.26 2.915.558a5.85 5.85 0 0 1 2.125 1.385A5.85 5.85 0 0 1 23.37 4.14c.296.762.498 1.635.558 2.912C23.985 8.332 24 8.74 24 12c0 3.26-.015 3.668-.072 4.947-.06 1.278-.262 2.15-.558 2.913a5.895 5.895 0 0 1-1.385 2.125 5.852 5.852 0 0 1-2.124 1.385c-.763.297-1.637.498-2.914.558-1.28.057-1.688.072-4.947.072-3.26 0-3.667-.015-4.948-.072-1.278-.059-2.148-.26-2.913-.558a5.857 5.857 0 0 1-2.124-1.385A5.895 5.895 0 0 1 .63 19.86c-.297-.763-.498-1.635-.558-2.913C.015 15.667 0 15.26 0 12.002c0-3.261.015-3.67.072-4.952.059-1.275.26-2.148.558-2.91a5.85 5.85 0 0 1 1.385-2.125A5.85 5.85 0 0 1 4.14.63C4.903.333 5.775.132 7.055.072 8.334.015 8.743 0 11.998 0Zm6.674 3.467c-4.738.409-9.433.21-14.153.13 0 .304-.016.586.01.864.006.075.128.179.213.2.354.082.716.135 1.073.203.842.161 1.071.43 1.085 1.293.025 1.525.064 3.051.062 4.576-.004 2.456-.034 4.911-.057 7.367-.001.134-.027.27-.045.404a.698.698 0 0 1-.462.584c-.172.07-.353.126-.535.165-.443.095-.89.179-1.31.262v1.013c.185 0 .342.005.498 0 1.18-.038 2.359-.116 3.538-.11 3.291.02 6.583.072 9.874.113.431.005.415.008.462-.413.127-1.13.268-2.258.404-3.387l.157-1.292c-.198 0-.345.019-.486-.004-.324-.05-.481.09-.602.39a29.423 29.423 0 0 1-.888 2c-.396.802-1.027 1.343-1.949 1.37-1.523.047-3.05.078-4.574.035-.99-.029-1.362-.508-1.361-1.495 0-1.588.001-3.177.004-4.766 0-.122.01-.244.016-.363.057-.015.087-.03.116-.03 1.065.02 2.13.03 3.195.067.566.018 1.015.24 1.174.842l.257 1.028c.108.414.183.473.598.478h.269c.254-.001.31-.096.31-.333.006-1.785.025-3.571.04-5.356.002-.15 0-.299 0-.465-.285 0-.536.014-.785-.004-.197-.014-.28.069-.32.249a39.91 39.91 0 0 1-.325 1.367c-.158.604-.38.786-1.006.838-.458.038-.916.083-1.374.093-.707.016-1.415.005-2.163.005v-.34c.001-1.9.002-3.803.005-5.705 0-.422.013-.436.444-.437 1.693 0 3.387.02 5.08-.01.704-.012 1.15.303 1.445.891.132.26.246.533.33.81.145.48.253.969.397 1.447.031.103.144.243.234.256.255.035.518.012.805.012l.3-4.842Z"/>
  </g>
  <defs>
    <clipPath id="a">
      <path d="M0 0h24v24H0z"/>
    </clipPath>
  </defs>
</svg>
