<svg xmlns="http://www.w3.org/2000/svg" width="24" height="24" viewBox="0 0 24 24">
  <path d="M15.722 1.006A4.5 4.5 0 0 1 18.326 9 4.489 4.489 0 0 1 20 12.5l-.006.222A4.498 4.498 0 0 1 13 16.242V19.5A4.5 4.5 0 1 1 5.673 16a4.5 4.5 0 0 1 0-7A4.5 4.5 0 0 1 8.5 1h7l.222.006ZM8.5 17a2.5 2.5 0 1 0 2.5 2.5V17H8.5Zm0-7a2.5 2.5 0 0 0 0 5H11v-5H8.5Zm7 0a2.502 2.502 0 0 0-2.5 2.5l.012.245a2.505 2.505 0 0 0 1.531 2.065 2.502 2.502 0 0 0 3.267-1.353c.125-.303.19-.629.19-.957l-.012-.245a2.505 2.505 0 0 0-1.531-2.065A2.502 2.502 0 0 0 15.5 10Zm-7-7a2.5 2.5 0 0 0 0 5H11V3H8.5ZM13 8h2.5a2.501 2.501 0 0 0 2.31-3.457A2.502 2.502 0 0 0 15.5 3H13v5Z"/>
</svg>