<svg xmlns="http://www.w3.org/2000/svg" width="24" height="24" viewBox="0 0 24 24">
  <g clip-path="url(#a)">
    <path d="M12 6a6 6 0 1 1-.002 12A6 6 0 0 1 12 6Zm0 2a4 4 0 1 0 0 7.999A4 4 0 0 0 12 8Zm6.406-3.845a1.44 1.44 0 1 1 0 2.882 1.44 1.44 0 0 1 0-2.882Z"/>
    <path d="M11.998 0c3.26 0 3.667.015 4.947.072 1.277.059 2.15.26 2.915.558a5.85 5.85 0 0 1 2.125 1.385A5.85 5.85 0 0 1 23.37 4.14c.296.762.498 1.635.558 2.912C23.985 8.332 24 8.74 24 12c0 3.26-.015 3.668-.072 4.947-.06 1.278-.262 2.15-.558 2.913a5.895 5.895 0 0 1-1.385 2.125 5.852 5.852 0 0 1-2.124 1.385c-.763.297-1.637.498-2.914.558-1.28.057-1.688.072-4.947.072-3.26 0-3.667-.015-4.948-.072-1.278-.059-2.148-.26-2.913-.558a5.857 5.857 0 0 1-2.124-1.385A5.895 5.895 0 0 1 .63 19.86c-.297-.763-.498-1.635-.558-2.913C.015 15.667 0 15.26 0 12.002c0-3.261.015-3.67.072-4.952.059-1.275.26-2.148.558-2.91a5.85 5.85 0 0 1 1.385-2.125A5.85 5.85 0 0 1 4.14.63C4.903.333 5.775.132 7.055.072 8.334.015 8.743 0 11.998 0Zm-1.075 1.997c-2.237.002-2.666.016-3.773.067-1.17.054-1.804.25-2.227.415-1.203.466-1.973 1.245-2.44 2.446-.165.423-.36 1.059-.414 2.228C2.012 8.418 2 8.794 2 12c0 3.206.012 3.585.07 4.85.052 1.17.248 1.806.411 2.227.336.9 1.541 2.105 2.442 2.439.423.165 1.057.36 2.227.414 1.265.057 1.646.07 4.85.07 3.204 0 3.583-.013 4.848-.07 1.17-.054 1.807-.25 2.227-.414.985-.382 1.918-1.47 2.28-2.444.164-.423.36-1.057.413-2.227.058-1.265.07-1.646.07-4.848s-.012-3.582-.07-4.847c-.053-1.17-.248-1.806-.413-2.227-.482-1.243-.99-1.94-2.278-2.442-.423-.163-1.06-.36-2.23-.412C15.584 2.011 15.205 2 12 2h-1.077v-.003Z"/>
  </g>
  <defs>
    <clipPath id="a">
      <path d="M0 0h24v24H0z"/>
    </clipPath>
  </defs>
</svg>
