<svg xmlns="http://www.w3.org/2000/svg" width="24" height="24" viewBox="0 0 24 24">
  <path d="M15.75 8.75a1.002 1.002 0 0 1 .907.577l5.25 11.25a1.004 1.004 0 0 1-.17 1.099 1 1 0 0 1-1.643-.253L18.963 19h-6.426l-1.13 2.423a1.001 1.001 0 0 1-1.813-.846l5.25-11.25a1.001 1.001 0 0 1 .906-.577ZM13.47 17h4.56l-2.28-4.885L13.47 17ZM9 2a1.001 1.001 0 0 1 1 1v1.26a49.64 49.64 0 0 1 5.124.369 1.005 1.005 0 0 1 .666.378 1.004 1.004 0 0 1-.176 1.404 1.001 1.001 0 0 1-.738.203 46.087 46.087 0 0 0-1.773-.186 18.92 18.92 0 0 1-2.84 6.04c.276.327.562.643.862.946v.001A1 1 0 0 1 9.7 14.817c-.24-.244-.472-.496-.698-.752a19.071 19.071 0 0 1-5.542 4.326 1 1 0 0 1-.918-1.777l.38-.203a17.073 17.073 0 0 0 4.815-3.942A18.972 18.972 0 0 1 5.66 8.692l-.002-.004a1.001 1.001 0 0 1 1.808-.845l.043.088.002.005c.405.99.904 1.938 1.488 2.834a16.912 16.912 0 0 0 2.062-4.474 47.792 47.792 0 0 0-7.936.318 1.002 1.002 0 0 1-.913-1.607 1 1 0 0 1 .665-.378c1.7-.212 3.41-.334 5.124-.368V3a1 1 0 0 1 1-1Z"/>
</svg>
