<svg xmlns="http://www.w3.org/2000/svg" width="24" height="24" viewBox="0 0 24 24">
  <g clip-path="url(#a)">
    <path d="M11.998 0c3.26 0 3.667.015 4.947.072 1.277.059 2.15.26 2.915.558a5.85 5.85 0 0 1 2.125 1.385A5.85 5.85 0 0 1 23.37 4.14c.296.762.498 1.635.558 2.912C23.985 8.332 24 8.74 24 12c0 3.26-.015 3.668-.072 4.947-.06 1.278-.262 2.15-.558 2.913a5.895 5.895 0 0 1-1.385 2.125 5.852 5.852 0 0 1-2.124 1.385c-.763.297-1.637.498-2.914.558-1.28.057-1.688.072-4.947.072-3.26 0-3.667-.015-4.948-.072-1.278-.059-2.148-.26-2.913-.558a5.857 5.857 0 0 1-2.124-1.385A5.895 5.895 0 0 1 .63 19.86c-.297-.763-.498-1.635-.558-2.913C.015 15.667 0 15.26 0 12.002c0-3.261.015-3.67.072-4.952.059-1.275.26-2.148.558-2.91a5.85 5.85 0 0 1 1.385-2.125A5.85 5.85 0 0 1 4.14.63C4.903.333 5.775.132 7.055.072 8.334.015 8.743 0 11.998 0ZM4.213 9.225V20.06h3.601V9.225H4.213Zm12.411-.257c-1.911 0-2.767 1.05-3.247 1.79V9.225h-3.6c.044 1.013 0 10.758 0 10.836h3.6V14.01c0-.324.023-.648.12-.88.259-.646.852-1.317 1.848-1.317 1.303 0 1.824.994 1.824 2.452v5.796h3.6v-6.215c0-3.33-1.775-4.878-4.145-4.878ZM6.038 4C4.805 4 4 4.81 4 5.872c0 1.041.781 1.872 1.99 1.872h.025c1.255 0 2.037-.831 2.037-1.872C8.029 4.81 7.272 4 6.038 4Z"/>
  </g>
  <defs>
    <clipPath id="a">
      <path d="M0 0h24v24H0z"/>
    </clipPath>
  </defs>
</svg>
